<?xml version="1.0" encoding="UTF-8"?>
<svg id="Layer_2" data-name="Layer 2" xmlns="http://www.w3.org/2000/svg" xmlns:xlink="http://www.w3.org/1999/xlink" viewBox="0 0 128.2 128.2">
  <defs>
    <style>
      .cls-1 {
        fill: none;
      }

      .cls-1, .cls-2, .cls-3 {
        stroke-width: 0px;
      }

      .cls-4 {
        clip-path: url(#clippath);
      }

      .cls-2 {
        fill: #61bf7d;
      }

      .cls-3 {
        fill: #fff;
      }
    </style>
    <clipPath id="clippath">
      <circle class="cls-1" cx="64.1" cy="64.1" r="64.1"/>
    </clipPath>
  </defs>
  <g id="Layer_2-2" data-name="Layer 2">
    <g>
      <g class="cls-4">
        <g>
          <g>
            <path class="cls-2" d="M44.64,42.29l.72-2.14c4.46,25.04,16.3,91.14,16.3,16.13,0-.31.23-.58.52-.58h4.07c.29,0,.52.27.52.58-.06,131.37-22.12-13.99-22.12-13.99h0Z"/>
            <path class="cls-3" d="M32.94,39.92l-10.63,18.41c-.61,1.06-.25,2.41.81,3.02s2.41.25,3.02-.81l10.76-18.64c17.39,7.8,37.29,7.8,54.68,0l10.76,18.64c.63,1.04,1.99,1.38,3.04.75,1.01-.61,1.36-1.92.79-2.96l-10.63-18.41c18.25-9.93,30.74-28.41,32.56-50.24H.37C2.2,11.51,14.69,29.99,32.94,39.92Z"/>
            <rect class="cls-2" x="61.76" y="42.24" width="5.13" height="10.26" rx=".68" ry=".68"/>
            <rect class="cls-2" x="61.76" y="36.79" width="5.13" height="2.56" rx=".63" ry=".63"/>
          </g>
          <rect class="cls-3" x="37.09" y="51.53" width="1.28" height="1.28"/>
          <rect class="cls-3" x="42.53" y="70.44" width="1.28" height="1.28"/>
          <rect class="cls-3" x="100.22" y="90.31" width="1.28" height="1.28"/>
          <rect class="cls-3" x="73.62" y="62.75" width="1.28" height="1.28"/>
          <rect class="cls-3" x="84.2" y="52.17" width="1.28" height="1.28"/>
          <rect class="cls-3" x="76.19" y="74.61" width="1.28" height="1.28"/>
          <rect class="cls-3" x="88.04" y="69.8" width="2.56" height="2.56"/>
          <rect class="cls-3" x="42.53" y="77.81" width="1.28" height="1.28"/>
          <rect class="cls-3" x="52.47" y="58.58" width="2.56" height="2.56"/>
          <rect class="cls-3" x="69.13" y="84.22" width="2.56" height="2.56"/>
          <rect class="cls-3" x="76.19" y="94.16" width="2.56" height="2.56"/>
          <rect class="cls-3" x="33.56" y="63.39" width="2.56" height="2.56"/>
          <rect class="cls-3" x="103.43" y="43.52" width="2.56" height="2.56"/>
          <rect class="cls-3" x="26.19" y="85.82" width="2.56" height="2.56"/>
        </g>
      </g>
      <path class="cls-2" d="M64.43,24.69c-2.36,0-4.27,1.71-4.27,3.81v4.7c0,.41.36.74.8.74h0c.44,0,.8-.33.8-.74v-1.28c0-.8.65-1.46,1.46-1.46h2.49c.47,0,.86.38.86.86v2.03c0,.14.07.28.18.37.67.5,1.42.07,1.42-.52v-4.7c0-2.1-1.91-3.81-4.27-3.81h.53Z"/>
    </g>
  </g>
</svg>